<svg width="500" height="500" viewBox="0 0 500 500" fill="none" xmlns="http://www.w3.org/2000/svg">
<rect width="500" height="500" fill="#F5F5F5"/>
<rect width="500" height="500" fill="#0E2438"/>
<path d="M209.2 311.66C209.2 318.247 209.547 323.62 210.24 327.78C210.933 331.767 212.233 334.887 214.14 337.14C216.22 339.22 219.08 340.693 222.72 341.56C226.533 342.427 231.473 342.947 237.54 343.12V353H153.3V343.12C159.367 342.947 164.22 342.427 167.86 341.56C171.673 340.693 174.62 339.22 176.7 337.14C178.78 335.06 180.167 332.113 180.86 328.3C181.553 324.487 181.9 319.547 181.9 313.48V257.06H76.6V311.66C76.6 318.247 76.9467 323.62 77.64 327.78C78.3333 331.767 79.6333 334.887 81.54 337.14C83.62 339.22 86.48 340.693 90.12 341.56C93.9333 342.427 98.8733 342.947 104.94 343.12V353H20.7V343.12C26.7667 342.947 31.62 342.427 35.26 341.56C39.0733 340.693 42.02 339.22 44.1 337.14C46.18 335.06 47.5667 332.113 48.26 328.3C48.9533 324.487 49.3 319.547 49.3 313.48V192.32C49.3 186.253 48.9533 181.4 48.26 177.76C47.74 173.947 46.5267 171 44.62 168.92C42.8867 166.667 40.2867 165.193 36.82 164.5C33.3533 163.633 28.8467 163.027 23.3 162.68V152.8H102.34V162.68C96.7933 162.853 92.2867 163.373 88.82 164.24C85.5267 165.107 82.9267 166.667 81.02 168.92C79.2867 171.173 78.0733 174.293 77.38 178.28C76.86 182.267 76.6 187.553 76.6 194.14V244.06H181.9V192.32C181.9 186.253 181.553 181.4 180.86 177.76C180.34 173.947 179.127 171 177.22 168.92C175.487 166.667 172.887 165.193 169.42 164.5C165.953 163.633 161.447 163.027 155.9 162.68V152.8H234.94V162.68C229.393 162.853 224.887 163.373 221.42 164.24C218.127 165.107 215.527 166.667 213.62 168.92C211.887 171.173 210.673 174.293 209.98 178.28C209.46 182.267 209.2 187.553 209.2 194.14V311.66ZM449.649 311.66C449.649 318.247 449.996 323.62 450.689 327.78C451.383 331.767 452.683 334.887 454.589 337.14C456.669 339.22 459.529 340.693 463.169 341.56C466.983 342.427 471.923 342.947 477.989 343.12V353H393.749V343.12C399.816 342.947 404.669 342.427 408.309 341.56C412.123 340.693 415.069 339.22 417.149 337.14C419.229 335.06 420.616 332.113 421.309 328.3C422.003 324.487 422.349 319.547 422.349 313.48V257.06H317.049V311.66C317.049 318.247 317.396 323.62 318.089 327.78C318.783 331.767 320.083 334.887 321.989 337.14C324.069 339.22 326.929 340.693 330.569 341.56C334.383 342.427 339.323 342.947 345.389 343.12V353H261.149V343.12C267.216 342.947 272.069 342.427 275.709 341.56C279.523 340.693 282.469 339.22 284.549 337.14C286.629 335.06 288.016 332.113 288.709 328.3C289.403 324.487 289.749 319.547 289.749 313.48V192.32C289.749 186.253 289.403 181.4 288.709 177.76C288.189 173.947 286.976 171 285.069 168.92C283.336 166.667 280.736 165.193 277.269 164.5C273.803 163.633 269.296 163.027 263.749 162.68V152.8H342.789V162.68C337.243 162.853 332.736 163.373 329.269 164.24C325.976 165.107 323.376 166.667 321.469 168.92C319.736 171.173 318.523 174.293 317.829 178.28C317.309 182.267 317.049 187.553 317.049 194.14V244.06H422.349V192.32C422.349 186.253 422.003 181.4 421.309 177.76C420.789 173.947 419.576 171 417.669 168.92C415.936 166.667 413.336 165.193 409.869 164.5C406.403 163.633 401.896 163.027 396.349 162.68V152.8H475.389V162.68C469.843 162.853 465.336 163.373 461.869 164.24C458.576 165.107 455.976 166.667 454.069 168.92C452.336 171.173 451.123 174.293 450.429 178.28C449.909 182.267 449.649 187.553 449.649 194.14V311.66Z" fill="#DA9E63"/>
</svg>
