<?xml version="1.0" standalone="yes"?>
<svg xmlns="http://www.w3.org/2000/svg" width="500" height="500">
<path style="fill:#371927; stroke:none;" d="M0 0L0 500L500 500L500 0L0 0z"/>
<path style="fill:#a67350; stroke:none;" d="M33 140L33 141L110 141L86 140L33 140z"/>
<path style="fill:#7a503f; stroke:none;" d="M110 140L110 150L111 150L110 140z"/>
<path style="fill:#a67350; stroke:none;" d="M163 140L163 141L240 141L240 150C244.963 138.168 231.508 140 224 140L163 140z"/>
<path style="fill:#7a503f; stroke:none;" d="M240 140L241 141L240 140M259 140L260 141L259 140z"/>
<path style="fill:#a67350; stroke:none;" d="M259 150L260 150L260 141L336 141L318 140L280 140L261.318 140.603L259 150z"/>
<path style="fill:#936449; stroke:none;" d="M336 140L337 141L336 140z"/>
<path style="fill:#7a503f; stroke:none;" d="M389 140L390 141L389 140z"/>
<path style="fill:#a67350; stroke:none;" d="M390 140L390 141L467 141L443 140L390 140z"/>
<path style="fill:#7a503f; stroke:none;" d="M32 141L32 150L33 150L32 141z"/>
<path style="fill:#da9f63; stroke:none;" d="M33 141L33 150C41.8762 150.073 52.8273 151.602 56.4367 161.001C61.863 175.131 59 194.135 59 209L59 274C59 286.734 60.297 300.514 57.3164 313C53.1558 330.43 31.0127 320.541 31 337L113 337L113 328C105.199 326.552 96.0955 327.212 90.2245 320.892C84.2138 314.422 85 304.169 85 296L85 242L159 242C165.838 242 180.897 239.167 186.682 243.028C190.841 245.803 189 255.688 189 260C189 276.974 192.148 297.61 187.215 314C182.258 330.463 161.013 320.633 161 337L243 337C242.987 320.469 220.796 330.57 216.525 313C209.825 285.432 215 251.303 215 223C215 204.262 211.851 182.242 216.515 164C219.432 152.588 229.505 150.087 240 150L240 141L163 141L163 150C170.065 150.058 178.558 150.593 183.61 156.188C189.203 162.384 188.999 172.168 189 180L189 230L85 230L85 182C85 174.279 84.1038 164.746 88.7029 158.015C93.4976 150.999 102.194 150.022 110 150L110 141L33 141M260 141L260 150C269.338 150.193 279.809 151.941 283.211 162C288.038 176.275 285 195.088 285 210L285 277C285 288.65 286.593 301.625 283.76 313C279.376 330.605 257.013 320.402 257 337L339 337C338.988 320.84 318.117 330.241 313.055 314C307.951 297.628 311 276.967 311 260C311 255.688 309.159 245.803 313.318 243.028C319.103 239.167 334.162 242 341 242L415 242L415 296C415 304.471 416.109 314.191 409.786 320.892C403.847 327.186 394.843 326.544 387 328L387 337L469 337C468.987 320.754 447.402 330.233 443.044 313C440.353 302.361 442 289.91 442 279L442 214C442 198.526 438.805 178.953 442.928 164C446.089 152.537 456.49 150.029 467 150L467 141L390 141L390 150C397.813 150.161 406.465 151.171 411.348 158.015C416.045 164.599 415 173.374 415 181L415 230L311 230C311 213.016 310.599 195.978 311.015 179C311.192 171.771 311.472 161.865 316.533 156.213C321.59 150.565 329.939 150.019 337 150L337 141L260 141z"/>
<path style="fill:#936449; stroke:none;" d="M389 141L389 150L390 150L389 141z"/>
<path style="fill:#7a503f; stroke:none;" d="M34 150L34 151L38 151L34 150z"/>
<path style="fill:#936449; stroke:none;" d="M38 150L39 151L38 150z"/>
<path style="fill:#a67350; stroke:none;" d="M39.6667 150.333L40.3333 150.667L39.6667 150.333M101.667 150.333L102.333 150.667L101.667 150.333z"/>
<path style="fill:#936449; stroke:none;" d="M103 150L104 151L103 150z"/>
<path style="fill:#7a503f; stroke:none;" d="M104 150L104 151L108 151L104 150M165 150L165 151L168 151L165 150z"/>
<path style="fill:#936449; stroke:none;" d="M168 150L169 151L168 150z"/>
<path style="fill:#a67350; stroke:none;" d="M169.667 150.333L170.333 150.667L169.667 150.333M232 150L233 151L232 150z"/>
<path style="fill:#936449; stroke:none;" d="M233.667 150.333L234.333 150.667L233.667 150.333z"/>
<path style="fill:#7a503f; stroke:none;" d="M235 150L235 151L238 151L235 150M261 150L261 151L264 151L261 150z"/>
<path style="fill:#936449; stroke:none;" d="M264 150L265 151L264 150z"/>
<path style="fill:#a67350; stroke:none;" d="M265.667 150.333L266.333 150.667L265.667 150.333M328 150L329 151L328 150z"/>
<path style="fill:#936449; stroke:none;" d="M329.667 150.333L330.333 150.667L329.667 150.333z"/>
<path style="fill:#7a503f; stroke:none;" d="M331 150L331 151L334 151L331 150M391 150L391 151L394 151L391 150z"/>
<path style="fill:#936449; stroke:none;" d="M394.667 150.333L395.333 150.667L394.667 150.333z"/>
<path style="fill:#a67350; stroke:none;" d="M396 150L397 151L396 150M458.667 150.333L459.333 150.667L458.667 150.333z"/>
<path style="fill:#936449; stroke:none;" d="M460 150L461 151L460 150z"/>
<path style="fill:#7a503f; stroke:none;" d="M461 150L461 151L465 151L461 150M43.6667 151.333L44.3333 151.667L43.6667 151.333z"/>
<path style="fill:#a67350; stroke:none;" d="M45 151L46 152L45 151z"/>
<path style="fill:#936449; stroke:none;" d="M97 151L98 152L97 151z"/>
<path style="fill:#7a503f; stroke:none;" d="M98 151L99 152L98 151M173.667 151.333L174.333 151.667L173.667 151.333z"/>
<path style="fill:#936449; stroke:none;" d="M175 151L176 152L175 151z"/>
<path style="fill:#a67350; stroke:none;" d="M176 151L177 152L176 151M227 151L228 152L227 151z"/>
<path style="fill:#7a503f; stroke:none;" d="M228 151L229 152L228 151M270 151L271 152L270 151z"/>
<path style="fill:#936449; stroke:none;" d="M271 151L272 152L271 151z"/>
<path style="fill:#a67350; stroke:none;" d="M272 151L273 152L272 151M323 151L324 152L323 151z"/>
<path style="fill:#7a503f; stroke:none;" d="M324.667 151.333L325.333 151.667L324.667 151.333M400 151L401 152L400 151z"/>
<path style="fill:#936449; stroke:none;" d="M401 151L402 152L401 151z"/>
<path style="fill:#a67350; stroke:none;" d="M402 151L403 152L402 151M453 151L454 152L453 151z"/>
<path style="fill:#936449; stroke:none;" d="M454 151L455 152L454 151z"/>
<path style="fill:#7a503f; stroke:none;" d="M455 151L456 152L455 151M48 152L49 153L48 152z"/>
<path style="fill:#936449; stroke:none;" d="M94 152L95 153L94 152z"/>
<path style="fill:#7a503f; stroke:none;" d="M178 152L179 153L178 152z"/>
<path style="fill:#a67350; stroke:none;" d="M179 152L180 153L179 152M224 152L225 153L224 152z"/>
<path style="fill:#7a503f; stroke:none;" d="M225 152L226 153L225 152M274 152L275 153L274 152z"/>
<path style="fill:#a67350; stroke:none;" d="M275 152L276 153L275 152z"/>
<path style="fill:#7a503f; stroke:none;" d="M321 152L322 153L321 152M404 152L405 153L404 152z"/>
<path style="fill:#936449; stroke:none;" d="M405 152L406 153L405 152M451 152L452 153L451 152z"/>
<path style="fill:#7a503f; stroke:none;" d="M50 153L51 154L50 153z"/>
<path style="fill:#a67350; stroke:none;" d="M92 153L93 154L92 153z"/>
<path style="fill:#7a503f; stroke:none;" d="M180 153L181 154L180 153z"/>
<path style="fill:#a67350; stroke:none;" d="M222 153L223 154L222 153z"/>
<path style="fill:#7a503f; stroke:none;" d="M223 153L224 154L223 153z"/>
<path style="fill:#a67350; stroke:none;" d="M277 153L278 154L277 153z"/>
<path style="fill:#7a503f; stroke:none;" d="M319 153L320 154L319 153z"/>
<path style="fill:#936449; stroke:none;" d="M407 153L408 154L407 153M449 153L450 154L449 153z"/>
<path style="fill:#a67350; stroke:none;" d="M52 154L53 155L52 154z"/>
<path style="fill:#7a503f; stroke:none;" d="M91 154L92 155L91 154z"/>
<path style="fill:#936449; stroke:none;" d="M182 154L183 155L182 154M221 154L222 155L221 154z"/>
<path style="fill:#7a503f; stroke:none;" d="M278 154L279 155L278 154z"/>
<path style="fill:#a67350; stroke:none;" d="M317 154L318 155L317 154z"/>
<path style="fill:#7a503f; stroke:none;" d="M408 154L409 155L408 154M448 154L449 155L448 154z"/>
<path style="fill:#a67350; stroke:none;" d="M53 155L54 156L53 155z"/>
<path style="fill:#7a503f; stroke:none;" d="M90 155L91 156L90 155z"/>
<path style="fill:#936449; stroke:none;" d="M183 155L184 156L183 155M220 155L221 156L220 155z"/>
<path style="fill:#7a503f; stroke:none;" d="M279 155L280 156L279 155z"/>
<path style="fill:#a67350; stroke:none;" d="M316 155L317 156L316 155M54 156L55 157L54 156z"/>
<path style="fill:#7a503f; stroke:none;" d="M89 156L90 157L89 156z"/>
<path style="fill:#a67350; stroke:none;" d="M184 156L185 157L184 156M219 156L220 157L219 156z"/>
<path style="fill:#7a503f; stroke:none;" d="M280 156L281 157L280 156z"/>
<path style="fill:#a67350; stroke:none;" d="M88 157L89 158L88 157M281 157L282 158L281 157z"/>
<path style="fill:#7a503f; stroke:none;" d="M315 157L316 158L315 157M411 157L412 158L411 157z"/>
<path style="fill:#936449; stroke:none;" d="M445 157L446 158L445 157M55 158L56 159L55 158z"/>
<path style="fill:#7a503f; stroke:none;" d="M185 158L186 159L185 158M218 158L219 159L218 158z"/>
<path style="fill:#a67350; stroke:none;" d="M314 158L315 159L314 158M87 159L88 160L87 159z"/>
<path style="fill:#936449; stroke:none;" d="M282 159L283 160L282 159z"/>
<path style="fill:#7a503f; stroke:none;" d="M412 159L413 160L412 159M444 159L445 160L444 159z"/>
<path style="fill:#a67350; stroke:none;" d="M56 160L57 161L56 160z"/>
<path style="fill:#7a503f; stroke:none;" d="M87 160L88 161L87 160M186 160L187 161L186 160z"/>
<path style="fill:#936449; stroke:none;" d="M217 160L218 161L217 160z"/>
<path style="fill:#a67350; stroke:none;" d="M313 160L314 161L313 160z"/>
<path style="fill:#7a503f; stroke:none;" d="M56 161L57 162L56 161M313 161L314 162L313 161z"/>
<path style="fill:#a67350; stroke:none;" d="M413 161L414 162L413 161M443 161L444 162L443 161M86 162L87 163L86 162M187.333 162.667L187.667 163.333L187.333 162.667z"/>
<path style="fill:#936449; stroke:none;" d="M283 162L284 163L283 162z"/>
<path style="fill:#7a503f; stroke:none;" d="M413 162L414 163L413 162M443 162L444 163L443 162M86.3333 163.667L86.6667 164.333L86.3333 163.667z"/>
<path style="fill:#a67350; stroke:none;" d="M216 163L217 164L216 163z"/>
<path style="fill:#7a503f; stroke:none;" d="M283 163L284 164L283 163z"/>
<path style="fill:#a67350; stroke:none;" d="M57 164L58 165L57 164z"/>
<path style="fill:#7a503f; stroke:none;" d="M187.333 164.667L187.667 165.333L187.333 164.667M216.333 164.667L216.667 165.333L216.333 164.667z"/>
<path style="fill:#a67350; stroke:none;" d="M312 164L313 165L312 164z"/>
<path style="fill:#936449; stroke:none;" d="M57 165L58 166L57 165M312 165L313 166L312 165z"/>
<path style="fill:#a67350; stroke:none;" d="M414.333 165.667L414.667 166.333L414.333 165.667M442.333 165.667L442.667 166.333L442.333 165.667z"/>
<path style="fill:#7a503f; stroke:none;" d="M57.3333 166.667L57.6667 167.333L57.3333 166.667M312.333 166.667L312.667 167.333L312.333 166.667z"/>
<path style="fill:#a67350; stroke:none;" d="M85.3333 167.667L85.6667 168.333L85.3333 167.667M284.333 167.667L284.667 168.333L284.333 167.667z"/>
<path style="fill:#936449; stroke:none;" d="M414 167L415 168L414 167M442 167L443 168L442 167z"/>
<path style="fill:#7a503f; stroke:none;" d="M414 168L414 171L415 171L414 168M442 168L442 171L443 171L442 168z"/>
<path style="fill:#936449; stroke:none;" d="M85.3333 169.667L85.6667 170.333L85.3333 169.667z"/>
<path style="fill:#a67350; stroke:none;" d="M188 169L188 172L189 172L188 169M215 169L215 173L216 173L215 169z"/>
<path style="fill:#936449; stroke:none;" d="M284 169L285 170L284 169z"/>
<path style="fill:#7a503f; stroke:none;" d="M284 170L284 178L285 178L284 170M85 171L85 177L86 177L85 171z"/>
<path style="fill:#936449; stroke:none;" d="M188 172L188 176L189 176L188 172z"/>
<path style="fill:#a67350; stroke:none;" d="M58 173L58 304L59 304L59 213C59 201.58 62.4076 183.504 58 173z"/>
<path style="fill:#936449; stroke:none;" d="M215 173L215 176L216 176L215 173z"/>
<path style="fill:#a67350; stroke:none;" d="M311 173L311 230L312 230L312 191L311 173z"/>
<path style="fill:#7a503f; stroke:none;" d="M188 176L188 230L189 230L189 194L188 176M215 176L215 301L216 301L216 214C216 203.104 219.208 186.027 215 176z"/>
<path style="fill:#a67350; stroke:none;" d="M85 242L85 243L188 243L157 242L85 242M312 242L312 243L415 243L384 242L312 242z"/>
<path style="fill:#7a503f; stroke:none;" d="M188 243L188 301L189 301L189 262L188 243z"/>
<path style="fill:#a67350; stroke:none;" d="M311 243L311 304L312 304L312 263L311 243z"/>
<path style="fill:#7a503f; stroke:none;" d="M284 299L284 307L285 307L284 299M85 300L85 306L86 306L85 300z"/>
<path style="fill:#936449; stroke:none;" d="M188 301L188 305L189 305L188 301M215 301L215 304L216 304L215 301z"/>
<path style="fill:#a67350; stroke:none;" d="M215 304L215 307L216 307L215 304M188 305L188 308L189 308L188 305z"/>
<path style="fill:#936449; stroke:none;" d="M85.3333 306.667L85.6667 307.333L85.3333 306.667z"/>
<path style="fill:#7a503f; stroke:none;" d="M414 306L414 309L415 309L414 306M442 306L442 309L443 309L442 306z"/>
<path style="fill:#936449; stroke:none;" d="M284 307L285 308L284 307z"/>
<path style="fill:#a67350; stroke:none;" d="M85.3333 308.667L85.6667 309.333L85.3333 308.667M284.333 308.667L284.667 309.333L284.333 308.667z"/>
<path style="fill:#7a503f; stroke:none;" d="M57.3333 309.667L57.6667 310.333L57.3333 309.667M312.333 309.667L312.667 310.333L312.333 309.667z"/>
<path style="fill:#936449; stroke:none;" d="M414 309L415 310L414 309M442 309L443 310L442 309z"/>
<path style="fill:#a67350; stroke:none;" d="M414.333 310.667L414.667 311.333L414.333 310.667M442 310L443 311L442 310z"/>
<path style="fill:#936449; stroke:none;" d="M57 311L58 312L57 311z"/>
<path style="fill:#7a503f; stroke:none;" d="M187.333 311.667L187.667 312.333L187.333 311.667M216 311L217 312L216 311z"/>
<path style="fill:#936449; stroke:none;" d="M312 311L313 312L312 311z"/>
<path style="fill:#a67350; stroke:none;" d="M57 312L58 313L57 312z"/>
<path style="fill:#7a503f; stroke:none;" d="M86 312L87 313L86 312z"/>
<path style="fill:#936449; stroke:none;" d="M216 312L217 313L216 312z"/>
<path style="fill:#a67350; stroke:none;" d="M312 312L313 313L312 312z"/>
<path style="fill:#936449; stroke:none;" d="M86 313L87 314L86 313z"/>
<path style="fill:#a67350; stroke:none;" d="M187 313L188 314L187 313M216 313L217 314L216 313z"/>
<path style="fill:#7a503f; stroke:none;" d="M283 313L284 314L283 313M443.333 313.667L443.667 314.333L443.333 313.667z"/>
<path style="fill:#a67350; stroke:none;" d="M86 314L87 315L86 314M283 314L284 315L283 314z"/>
<path style="fill:#7a503f; stroke:none;" d="M413 314L414 315L413 314M56 315L57 316L56 315M217 315L218 316L217 315z"/>
<path style="fill:#936449; stroke:none;" d="M313 315L314 316L313 315z"/>
<path style="fill:#a67350; stroke:none;" d="M413 315L414 316L413 315M443 315L444 316L443 315M56 316L57 317L56 316z"/>
<path style="fill:#7a503f; stroke:none;" d="M87 316L88 317L87 316z"/>
<path style="fill:#936449; stroke:none;" d="M186 316L187 317L186 316M217 316L218 317L217 316z"/>
<path style="fill:#7a503f; stroke:none;" d="M282 316L283 317L282 316z"/>
<path style="fill:#a67350; stroke:none;" d="M87 317L88 318L87 317M282 317L283 318L282 317z"/>
<path style="fill:#7a503f; stroke:none;" d="M314 317L315 318L314 317M412 317L413 318L412 317z"/>
<path style="fill:#936449; stroke:none;" d="M444 317L445 318L444 317z"/>
<path style="fill:#a67350; stroke:none;" d="M55 318L56 319L55 318z"/>
<path style="fill:#7a503f; stroke:none;" d="M88 318L89 319L88 318M185 318L186 319L185 318z"/>
<path style="fill:#936449; stroke:none;" d="M218 318L219 319L218 318z"/>
<path style="fill:#a67350; stroke:none;" d="M314 318L315 319L314 318z"/>
<path style="fill:#7a503f; stroke:none;" d="M54 319L55 320L54 319z"/>
<path style="fill:#a67350; stroke:none;" d="M88 319L89 320L88 319M281 319L282 320L281 319z"/>
<path style="fill:#7a503f; stroke:none;" d="M315 319L316 320L315 319z"/>
<path style="fill:#936449; stroke:none;" d="M411 319L412 320L411 319M445 319L446 320L445 319M89 320L90 321L89 320z"/>
<path style="fill:#a67350; stroke:none;" d="M184 320L185 321L184 320M219 320L220 321L219 320z"/>
<path style="fill:#936449; stroke:none;" d="M280 320L281 321L280 320z"/>
<path style="fill:#7a503f; stroke:none;" d="M410 320L411 321L410 320M446 320L447 321L446 320z"/>
<path style="fill:#a67350; stroke:none;" d="M53 321L54 322L53 321z"/>
<path style="fill:#7a503f; stroke:none;" d="M90 321L91 322L90 321z"/>
<path style="fill:#a67350; stroke:none;" d="M183 321L184 322L183 321M220 321L221 322L220 321z"/>
<path style="fill:#7a503f; stroke:none;" d="M279 321L280 322L279 321z"/>
<path style="fill:#a67350; stroke:none;" d="M316 321L317 322L316 321z"/>
<path style="fill:#7a503f; stroke:none;" d="M409 321L410 322L409 321M91 322L92 323L91 322z"/>
<path style="fill:#a67350; stroke:none;" d="M182 322L183 323L182 322M221 322L222 323L221 322z"/>
<path style="fill:#936449; stroke:none;" d="M278 322L279 323L278 322z"/>
<path style="fill:#7a503f; stroke:none;" d="M408 322L409 323L408 322M448 322L449 323L448 322z"/>
<path style="fill:#936449; stroke:none;" d="M50 323L51 324L50 323z"/>
<path style="fill:#a67350; stroke:none;" d="M92 323L93 324L92 323z"/>
<path style="fill:#7a503f; stroke:none;" d="M180 323L181 324L180 323M223 323L224 324L223 323M276 323L277 324L276 323z"/>
<path style="fill:#a67350; stroke:none;" d="M277 323L278 324L277 323z"/>
<path style="fill:#7a503f; stroke:none;" d="M319 323L320 324L319 323z"/>
<path style="fill:#a67350; stroke:none;" d="M407 323L408 324L407 323z"/>
<path style="fill:#936449; stroke:none;" d="M449 323L450 324L449 323M48 324L49 325L48 324z"/>
<path style="fill:#a67350; stroke:none;" d="M94 324L95 325L94 324z"/>
<path style="fill:#7a503f; stroke:none;" d="M95 324L96 325L95 324M178 324L179 325L178 324z"/>
<path style="fill:#a67350; stroke:none;" d="M224 324L225 325L224 324z"/>
<path style="fill:#7a503f; stroke:none;" d="M225 324L226 325L225 324M274 324L275 325L274 324z"/>
<path style="fill:#a67350; stroke:none;" d="M275 324L276 325L275 324z"/>
<path style="fill:#7a503f; stroke:none;" d="M321 324L322 325L321 324M404 324L405 325L404 324z"/>
<path style="fill:#a67350; stroke:none;" d="M405 324L406 325L405 324z"/>
<path style="fill:#936449; stroke:none;" d="M451 324L452 325L451 324z"/>
<path style="fill:#7a503f; stroke:none;" d="M44 325L45 326L44 325z"/>
<path style="fill:#936449; stroke:none;" d="M45 325L46 326L45 325z"/>
<path style="fill:#a67350; stroke:none;" d="M46 325L47 326L46 325z"/>
<path style="fill:#936449; stroke:none;" d="M97 325L98 326L97 325z"/>
<path style="fill:#7a503f; stroke:none;" d="M98 325L99 326L98 325M175 325L176 326L175 325z"/>
<path style="fill:#a67350; stroke:none;" d="M176 325L177 326L176 325M227 325L228 326L227 325z"/>
<path style="fill:#7a503f; stroke:none;" d="M228 325L229 326L228 325M271 325L272 326L271 325z"/>
<path style="fill:#a67350; stroke:none;" d="M272 325L273 326L272 325M323 325L324 326L323 325z"/>
<path style="fill:#7a503f; stroke:none;" d="M324 325L325 326L324 325M401 325L402 326L401 325z"/>
<path style="fill:#936449; stroke:none;" d="M402 325L403 326L402 325z"/>
<path style="fill:#a67350; stroke:none;" d="M453 325L454 326L453 325z"/>
<path style="fill:#936449; stroke:none;" d="M454 325L455 326L454 325z"/>
<path style="fill:#7a503f; stroke:none;" d="M455 325L456 326L455 325M38.6667 326.333L39.3333 326.667L38.6667 326.333z"/>
<path style="fill:#936449; stroke:none;" d="M40 326L41 327L40 326z"/>
<path style="fill:#a67350; stroke:none;" d="M41.6667 326.333L42.3333 326.667L41.6667 326.333M101 326L102 327L101 326z"/>
<path style="fill:#936449; stroke:none;" d="M102 326L103 327L102 326z"/>
<path style="fill:#7a503f; stroke:none;" d="M103.667 326.333L104.333 326.667L103.667 326.333M168.667 326.333L169.333 326.667L168.667 326.333z"/>
<path style="fill:#936449; stroke:none;" d="M170.667 326.333L171.333 326.667L170.667 326.333z"/>
<path style="fill:#a67350; stroke:none;" d="M172 326L173 327L172 326M231 326L232 327L231 326z"/>
<path style="fill:#936449; stroke:none;" d="M232 326L233 327L232 326z"/>
<path style="fill:#7a503f; stroke:none;" d="M233.667 326.333L234.333 326.667L233.667 326.333M265.667 326.333L266.333 326.667L265.667 326.333z"/>
<path style="fill:#936449; stroke:none;" d="M267 326L268 327L267 326z"/>
<path style="fill:#a67350; stroke:none;" d="M268 326L269 327L268 326M327 326L328 327L327 326z"/>
<path style="fill:#936449; stroke:none;" d="M328 326L329 327L328 326z"/>
<path style="fill:#7a503f; stroke:none;" d="M329 326L329 327L332 327L329 326M395.667 326.333L396.333 326.667L395.667 326.333z"/>
<path style="fill:#936449; stroke:none;" d="M397 326L398 327L397 326z"/>
<path style="fill:#a67350; stroke:none;" d="M398 326L399 327L398 326M457.667 326.333L458.333 326.667L457.667 326.333z"/>
<path style="fill:#936449; stroke:none;" d="M459 326L460 327L459 326z"/>
<path style="fill:#7a503f; stroke:none;" d="M460.667 326.333L461.333 326.667L460.667 326.333z"/>
<path style="fill:#936449; stroke:none;" d="M30 327L31 328L30 327z"/>
<path style="fill:#a67350; stroke:none;" d="M31.6667 327.333L32.3333 327.667L31.6667 327.333M110 327L110 328L113 328L110 327z"/>
<path style="fill:#7a503f; stroke:none;" d="M160 327L161 328L160 327z"/>
<path style="fill:#a67350; stroke:none;" d="M161.667 327.333L162.333 327.667L161.667 327.333M241.667 327.333L242.333 327.667L241.667 327.333M257.667 327.333L258.333 327.667L257.667 327.333M337.667 327.333L338.333 327.667L337.667 327.333z"/>
<path style="fill:#7a503f; stroke:none;" d="M339 327L340 328L339 327z"/>
<path style="fill:#a67350; stroke:none;" d="M387 327L387 328L390 328L387 327M467 327L467 328L469 337L470 337C469.997 333.013 470.598 329.332 467 327z"/>
<path style="fill:#936449; stroke:none;" d="M469 327L470 328L469 327z"/>
<path style="fill:#a67350; stroke:none;" d="M30 328L30 337L31 337L30 328z"/>
<path style="fill:#936449; stroke:none;" d="M160 328L160 337L161 337L160 328z"/>
<path style="fill:#7a503f; stroke:none;" d="M243 328L243 337L244 337L243 328M256 328L256 337L257 337L256 328z"/>
<path style="fill:#936449; stroke:none;" d="M339 328L339 337L340 337L339 328z"/>
</svg>
