<svg xmlns="http://www.w3.org/2000/svg" xmlns:xlink="http://www.w3.org/1999/xlink" width="500" zoomAndPan="magnify" viewBox="0 0 375 374.999991" height="500" preserveAspectRatio="xMidYMid meet" version="1.0"><defs><g/></defs><rect x="-37.5" width="450" fill="#ffffff" y="-37.499999" height="449.999989" fill-opacity="1"/><rect x="-37.5" width="450" fill="#062424" y="-37.499999" height="449.999989" fill-opacity="1"/><g fill="#ffffff" fill-opacity="1"><g transform="translate(16.796143, 285.611729)"><g><path d="M 152.15625 -143.359375 L 152.15625 -46.84375 C 152.15625 -41.132812 152.191406 -35.976562 152.265625 -31.375 C 152.347656 -26.78125 152.546875 -22.066406 152.859375 -17.234375 C 153.179688 -12.398438 153.582031 -6.65625 154.0625 0 L 126.953125 0 C 127.429688 -6.65625 127.828125 -12.398438 128.140625 -17.234375 C 128.460938 -22.066406 128.660156 -26.78125 128.734375 -31.375 C 128.816406 -35.976562 128.859375 -41.132812 128.859375 -46.84375 L 128.859375 -93.203125 L 41.84375 -93.203125 L 41.84375 -46.84375 C 41.84375 -41.132812 41.878906 -35.976562 41.953125 -31.375 C 42.035156 -26.78125 42.234375 -22.066406 42.546875 -17.234375 C 42.867188 -12.398438 43.269531 -6.65625 43.75 0 L 16.640625 0 C 17.117188 -6.65625 17.515625 -12.398438 17.828125 -17.234375 C 18.148438 -22.066406 18.347656 -26.78125 18.421875 -31.375 C 18.503906 -35.976562 18.546875 -41.132812 18.546875 -46.84375 L 18.546875 -143.359375 C 18.546875 -149.222656 18.503906 -154.414062 18.421875 -158.9375 C 18.347656 -163.457031 18.148438 -168.132812 17.828125 -172.96875 C 17.515625 -177.800781 17.117188 -183.546875 16.640625 -190.203125 L 43.75 -190.203125 C 43.269531 -183.546875 42.867188 -177.800781 42.546875 -172.96875 C 42.234375 -168.132812 42.035156 -163.457031 41.953125 -158.9375 C 41.878906 -154.414062 41.84375 -149.222656 41.84375 -143.359375 L 41.84375 -97 L 128.859375 -97 L 128.859375 -143.359375 C 128.859375 -149.222656 128.816406 -154.414062 128.734375 -158.9375 C 128.660156 -163.457031 128.460938 -168.132812 128.140625 -172.96875 C 127.828125 -177.800781 127.429688 -183.546875 126.953125 -190.203125 L 154.0625 -190.203125 C 153.582031 -183.546875 153.179688 -177.800781 152.859375 -172.96875 C 152.546875 -168.132812 152.347656 -163.457031 152.265625 -158.9375 C 152.191406 -154.414062 152.15625 -149.222656 152.15625 -143.359375 Z M 152.15625 -143.359375 "/></g></g></g><g fill="#ffffff" fill-opacity="1"><g transform="translate(187.494947, 285.611729)"><g><path d="M 152.15625 -143.359375 L 152.15625 -46.84375 C 152.15625 -41.132812 152.191406 -35.976562 152.265625 -31.375 C 152.347656 -26.78125 152.546875 -22.066406 152.859375 -17.234375 C 153.179688 -12.398438 153.582031 -6.65625 154.0625 0 L 126.953125 0 C 127.429688 -6.65625 127.828125 -12.398438 128.140625 -17.234375 C 128.460938 -22.066406 128.660156 -26.78125 128.734375 -31.375 C 128.816406 -35.976562 128.859375 -41.132812 128.859375 -46.84375 L 128.859375 -93.203125 L 41.84375 -93.203125 L 41.84375 -46.84375 C 41.84375 -41.132812 41.878906 -35.976562 41.953125 -31.375 C 42.035156 -26.78125 42.234375 -22.066406 42.546875 -17.234375 C 42.867188 -12.398438 43.269531 -6.65625 43.75 0 L 16.640625 0 C 17.117188 -6.65625 17.515625 -12.398438 17.828125 -17.234375 C 18.148438 -22.066406 18.347656 -26.78125 18.421875 -31.375 C 18.503906 -35.976562 18.546875 -41.132812 18.546875 -46.84375 L 18.546875 -143.359375 C 18.546875 -149.222656 18.503906 -154.414062 18.421875 -158.9375 C 18.347656 -163.457031 18.148438 -168.132812 17.828125 -172.96875 C 17.515625 -177.800781 17.117188 -183.546875 16.640625 -190.203125 L 43.75 -190.203125 C 43.269531 -183.546875 42.867188 -177.800781 42.546875 -172.96875 C 42.234375 -168.132812 42.035156 -163.457031 41.953125 -158.9375 C 41.878906 -154.414062 41.84375 -149.222656 41.84375 -143.359375 L 41.84375 -97 L 128.859375 -97 L 128.859375 -143.359375 C 128.859375 -149.222656 128.816406 -154.414062 128.734375 -158.9375 C 128.660156 -163.457031 128.460938 -168.132812 128.140625 -172.96875 C 127.828125 -177.800781 127.429688 -183.546875 126.953125 -190.203125 L 154.0625 -190.203125 C 153.582031 -183.546875 153.179688 -177.800781 152.859375 -172.96875 C 152.546875 -168.132812 152.347656 -163.457031 152.265625 -158.9375 C 152.191406 -154.414062 152.15625 -149.222656 152.15625 -143.359375 Z M 152.15625 -143.359375 "/></g></g></g></svg>